<?xml version="1.0" encoding="utf-8"?>
<svg xmlns="http://www.w3.org/2000/svg" xmlns:xlink="http://www.w3.org/1999/xlink" style="margin: auto; background: rgb(96, 163, 99); display: block; z-index: 1; position: relative; shape-rendering: auto;" width="3000" height="2000" preserveAspectRatio="xMidYMid" viewBox="0 0 3000 2000">
<g transform="translate(1500,1000) scale(1,1) translate(-1500,-1000)"><path id="path0" d="M 2445.4954827612014 1397.7407006476449
c 0 26.101438080016113 -6.386522083408197 7.497221576174842 -13.88374365958304 7.497221576174842
S 2417.727995442035 1423.842138727661 2417.727995442035 1397.7407006476449
s 6.386522083408197 -7.497221576174842 13.88374365958304 -7.497221576174842
S 2445.4954827612014 1371.6392625676287 2445.4954827612014 1397.7407006476449
z" fill="none" stroke="none"></path>
<circle cx="0" cy="0" r="17.447526810862424" fill="#985d4e" opacity="0.9">
  <animateMotion begin="-1.0680268619585518s" dur="4.5s" repeatCount="indefinite">
    <mpath xlink:href="#path0"></mpath>
  </animateMotion>
</circle><path id="path1" d="M 1461.2235981656306 134.3625194817551
c 0 29.28621615798072 -7.165776293974005 8.411998258143399 -15.577774552117404 8.411998258143399
S 1430.0680490613956 163.64873563973583 1430.0680490613956 134.3625194817551
s 7.165776293974005 -8.411998258143399 15.577774552117404 -8.411998258143399
S 1461.2235981656306 105.07630332377438 1461.2235981656306 134.3625194817551
z" fill="none" stroke="none"></path>
<circle cx="0" cy="0" r="24.854835227373407" fill="#0a4308" opacity="0.9">
  <animateMotion begin="-0.6340829639715595s" dur="4.5s" repeatCount="indefinite">
    <mpath xlink:href="#path1"></mpath>
  </animateMotion>
</circle><path id="path2" d="M 2433.493571546213 862.884203321278
c 0 19.77383979615765 -4.838279950123679 5.679719941449538 -10.517999891573218 5.679719941449538
S 2412.4575717630664 882.6580431174357 2412.4575717630664 862.884203321278
s 4.838279950123679 -5.679719941449538 10.517999891573218 -5.679719941449538
S 2433.493571546213 843.1103635251204 2433.493571546213 862.884203321278
z" fill="none" stroke="none"></path>
<circle cx="0" cy="0" r="22.826364049330312" fill="#9db189" opacity="0.9">
  <animateMotion begin="-3.063485595732498s" dur="4.5s" repeatCount="indefinite">
    <mpath xlink:href="#path2"></mpath>
  </animateMotion>
</circle><path id="path3" d="M 566.2111011731168 376.2982398438926
c 0 22.86910436705827 -5.595631919599363 6.568785296920993 -12.164417216520356 6.568785296920993
S 541.882266740076 399.1673442109509 541.882266740076 376.2982398438926
s 5.595631919599363 -6.568785296920993 12.164417216520356 -6.568785296920993
S 566.2111011731168 353.4291354768343 566.2111011731168 376.2982398438926
z" fill="none" stroke="none"></path>
<circle cx="0" cy="0" r="17.690540906292462" fill="#985d4e" opacity="0.9">
  <animateMotion begin="-4.448031123015624s" dur="4.5s" repeatCount="indefinite">
    <mpath xlink:href="#path3"></mpath>
  </animateMotion>
</circle><path id="path4" d="M 2240.4256417084407 1859.164080650975
c 0 29.258831445261066 -7.159075779159622 8.404132436404774 -15.563208215564398 8.404132436404774
S 2209.299225277312 1888.422912096236 2209.299225277312 1859.164080650975
s 7.159075779159622 -8.404132436404774 15.563208215564398 -8.404132436404774
S 2240.4256417084407 1829.905249205714 2240.4256417084407 1859.164080650975
z" fill="none" stroke="none"></path>
<circle cx="0" cy="0" r="23.58860205816526" fill="#aca730" opacity="0.9">
  <animateMotion begin="-2.468028594417352s" dur="4.5s" repeatCount="indefinite">
    <mpath xlink:href="#path4"></mpath>
  </animateMotion>
</circle><path id="path5" d="M 928.6284533817633 396.85809438871104
c 0 29.141451215030056 -7.13035508452863 8.370416838359697 -15.500771922888328 8.370416838359697
S 897.6269095359866 425.99954560374107 897.6269095359866 396.85809438871104
s 7.13035508452863 -8.370416838359697 15.500771922888328 -8.370416838359697
S 928.6284533817633 367.716643173681 928.6284533817633 396.85809438871104
z" fill="none" stroke="none"></path>
<circle cx="0" cy="0" r="20.377924144256056" fill="#466277" opacity="0.9">
  <animateMotion begin="-2.7933194623245763s" dur="4.5s" repeatCount="indefinite">
    <mpath xlink:href="#path5"></mpath>
  </animateMotion>
</circle><path id="path6" d="M 826.1593697663147 218.11942543555736
c 0 25.029043106203797 -6.124127568539227 7.189193232633006 -13.313320801172232 7.189193232633006
S 799.5327281639702 243.14846854176116 799.5327281639702 218.11942543555736
s 6.124127568539227 -7.189193232633006 13.313320801172232 -7.189193232633006
S 826.1593697663147 193.09038232935356 826.1593697663147 218.11942543555736
z" fill="none" stroke="none"></path>
<circle cx="0" cy="0" r="19.399256982083564" fill="#0a4308" opacity="0.9">
  <animateMotion begin="-0.5323086595468206s" dur="4.5s" repeatCount="indefinite">
    <mpath xlink:href="#path6"></mpath>
  </animateMotion>
</circle><path id="path7" d="M 870.4891145203915 1665.3306103794193
c 0 31.041402177966372 -7.59523670311943 8.916147434096724 -16.511384137216154 8.916147434096724
S 837.4663462459591 1696.3720125573857 837.4663462459591 1665.3306103794193
s 7.59523670311943 -8.916147434096724 16.511384137216154 -8.916147434096724
S 870.4891145203915 1634.289208201453 870.4891145203915 1665.3306103794193
z" fill="none" stroke="none"></path>
<circle cx="0" cy="0" r="20.495471811845363" fill="#aca730" opacity="0.9">
  <animateMotion begin="-0.14025785810965252s" dur="4.5s" repeatCount="indefinite">
    <mpath xlink:href="#path7"></mpath>
  </animateMotion>
</circle><path id="path8" d="M 2240.6828243500504 1719.9749187578177
c 0 28.942584119917164 -7.0816961144478165 8.313295438699612 -15.394991553147428 8.313295438699612
S 2209.8928412437554 1748.917502877735 2209.8928412437554 1719.9749187578177
s 7.0816961144478165 -8.313295438699612 15.394991553147428 -8.313295438699612
S 2240.6828243500504 1691.0323346379005 2240.6828243500504 1719.9749187578177
z" fill="none" stroke="none"></path>
<circle cx="0" cy="0" r="12.709365667208672" fill="#0a4308" opacity="0.9">
  <animateMotion begin="-3.860964089023495s" dur="4.5s" repeatCount="indefinite">
    <mpath xlink:href="#path8"></mpath>
  </animateMotion>
</circle><path id="path9" d="M 1598.2100023106775 1216.5229280293813
c 0 29.40574798883553 -7.195023444076778 8.44633186913361 -15.641355313210388 8.44633186913361
S 1566.9272916842567 1245.928676018217 1566.9272916842567 1216.5229280293813
s 7.195023444076778 -8.44633186913361 15.641355313210388 -8.44633186913361
S 1598.2100023106775 1187.1171800405457 1598.2100023106775 1216.5229280293813
z" fill="none" stroke="none"></path>
<circle cx="0" cy="0" r="13.438991325661668" fill="#607c83" opacity="0.9">
  <animateMotion begin="-2.695950244785198s" dur="4.5s" repeatCount="indefinite">
    <mpath xlink:href="#path9"></mpath>
  </animateMotion>
</circle><path id="path10" d="M 1568.8793413734445 1105.4910106604814
c 0 22.729059110586817 -5.561365527058476 6.528559531764299 -12.089925058822775 6.528559531764299
S 1544.699491255799 1128.2200697710682 1544.699491255799 1105.4910106604814
s 5.561365527058476 -6.528559531764299 12.089925058822775 -6.528559531764299
S 1568.8793413734445 1082.7619515498945 1568.8793413734445 1105.4910106604814
z" fill="none" stroke="none"></path>
<circle cx="0" cy="0" r="17.159491887815186" fill="#985d4e" opacity="0.9">
  <animateMotion begin="-0.09867903287427249s" dur="4.5s" repeatCount="indefinite">
    <mpath xlink:href="#path10"></mpath>
  </animateMotion>
</circle><path id="path11" d="M 297.3480160066896 1147.3804210094065
c 0 24.560785959080466 -6.009554011264369 7.054693839310347 -13.064247850574715 7.054693839310347
S 271.2195203055402 1171.941206968487 271.2195203055402 1147.3804210094065
s 6.009554011264369 -7.054693839310347 13.064247850574715 -7.054693839310347
S 297.3480160066896 1122.819635050326 297.3480160066896 1147.3804210094065
z" fill="none" stroke="none"></path>
<circle cx="0" cy="0" r="23.982324977139807" fill="#0a4308" opacity="0.9">
  <animateMotion begin="-4.145912699179148s" dur="4.5s" repeatCount="indefinite">
    <mpath xlink:href="#path11"></mpath>
  </animateMotion>
</circle><path id="path12" d="M 2037.254929260252 1226.6183319275501
c 0 25.433321495465048 -6.223046748890384 7.305315748697407 -13.528362497587791 7.305315748697407
S 2010.1982042650766 1252.051653423015 2010.1982042650766 1226.6183319275501
s 6.223046748890384 -7.305315748697407 13.528362497587791 -7.305315748697407
S 2037.254929260252 1201.1850104320852 2037.254929260252 1226.6183319275501
z" fill="none" stroke="none"></path>
<circle cx="0" cy="0" r="15.164452384003951" fill="#985d4e" opacity="0.9">
  <animateMotion begin="-3.217470393073589s" dur="4.5s" repeatCount="indefinite">
    <mpath xlink:href="#path12"></mpath>
  </animateMotion>
</circle><path id="path13" d="M 2233.564263459121 902.8866950790152
c 0 26.29310820489214 -6.433420092686374 7.552275760979658 -13.985695853666032 7.552275760979658
S 2205.5928717517886 929.1798032839074 2205.5928717517886 902.8866950790152
s 6.433420092686374 -7.552275760979658 13.985695853666032 -7.552275760979658
S 2233.564263459121 876.593586874123 2233.564263459121 902.8866950790152
z" fill="none" stroke="none"></path>
<circle cx="0" cy="0" r="22.405058896899586" fill="#466277" opacity="0.9">
  <animateMotion begin="-2.5722118228676445s" dur="4.5s" repeatCount="indefinite">
    <mpath xlink:href="#path13"></mpath>
  </animateMotion>
</circle><path id="path14" d="M 2243.992174945398 1892.400789129762
c 0 37.44753360042417 -9.162694391593147 10.756206459696307 -19.918900851289454 10.756206459696307
S 2204.154373242819 1929.848322730186 2204.154373242819 1892.400789129762
s 9.162694391593147 -10.756206459696307 19.918900851289454 -10.756206459696307
S 2243.992174945398 1854.9532555293379 2243.992174945398 1892.400789129762
z" fill="none" stroke="none"></path>
<circle cx="0" cy="0" r="23.263036163268687" fill="#9db189" opacity="0.9">
  <animateMotion begin="-2.509378607496685s" dur="4.5s" repeatCount="indefinite">
    <mpath xlink:href="#path14"></mpath>
  </animateMotion>
</circle><path id="path15" d="M 342.4512623198502 980.4455152832818
c 0 27.9623142794642 -6.84184285561358 8.031728569633334 -14.873571425246915 8.031728569633334
S 312.7041194693564 1008.407829562746 312.7041194693564 980.4455152832818
s 6.84184285561358 -8.031728569633334 14.873571425246915 -8.031728569633334
S 342.4512623198502 952.4832010038176 342.4512623198502 980.4455152832818
z" fill="none" stroke="none"></path>
<circle cx="0" cy="0" r="13.425282426030577" fill="#466277" opacity="0.9">
  <animateMotion begin="-2.3048049846016636s" dur="4.5s" repeatCount="indefinite">
    <mpath xlink:href="#path15"></mpath>
  </animateMotion>
</circle><path id="path16" d="M 593.643812744552 567.781463586043
c 0 27.443109185204083 -6.7148033112733385 7.88259519149479 -14.59739850276813 7.88259519149479
S 564.4490157390157 595.224572771247 564.4490157390157 567.781463586043
s 6.7148033112733385 -7.88259519149479 14.59739850276813 -7.88259519149479
S 593.643812744552 540.3383544008389 593.643812744552 567.781463586043
z" fill="none" stroke="none"></path>
<circle cx="0" cy="0" r="13.721209184273201" fill="#985d4e" opacity="0.9">
  <animateMotion begin="-0.058615629709643735s" dur="4.5s" repeatCount="indefinite">
    <mpath xlink:href="#path16"></mpath>
  </animateMotion>
</circle><path id="path17" d="M 1538.6952001245322 1689.7290621772788
c 0 35.77343220899148 -8.753073838370256 10.27534754939117 -19.028421387761426 10.27534754939117
S 1500.6383573490093 1725.5024943862702 1500.6383573490093 1689.7290621772788
s 8.753073838370256 -10.27534754939117 19.028421387761426 -10.27534754939117
S 1538.6952001245322 1653.9556299682874 1538.6952001245322 1689.7290621772788
z" fill="none" stroke="none"></path>
<circle cx="0" cy="0" r="16.492128653645537" fill="#2c8c14" opacity="0.9">
  <animateMotion begin="-3.188534935386346s" dur="4.5s" repeatCount="indefinite">
    <mpath xlink:href="#path17"></mpath>
  </animateMotion>
</circle><path id="path18" d="M 2847.2711979966434 1709.3179240485963
c 0 24.371710983886825 -5.963290985419116 7.000385069839832 -12.963676055258947 7.000385069839832
S 2821.3438458861256 1733.689635032483 2821.3438458861256 1709.3179240485963
s 5.963290985419116 -7.000385069839832 12.963676055258947 -7.000385069839832
S 2847.2711979966434 1684.9462130647096 2847.2711979966434 1709.3179240485963
z" fill="none" stroke="none"></path>
<circle cx="0" cy="0" r="19.335332461375266" fill="#2c8c14" opacity="0.9">
  <animateMotion begin="-2.239029934176042s" dur="4.5s" repeatCount="indefinite">
    <mpath xlink:href="#path18"></mpath>
  </animateMotion>
</circle><path id="path19" d="M 2249.969509360155 66.84747589485488
c 0 28.550684635938357 -6.985805815176406 8.20072856564187 -15.186534380818275 8.20072856564187
S 2219.5964405985187 95.39816053079323 2219.5964405985187 66.84747589485488
s 6.985805815176406 -8.20072856564187 15.186534380818275 -8.20072856564187
S 2249.969509360155 38.29679125891653 2249.969509360155 66.84747589485488
z" fill="none" stroke="none"></path>
<circle cx="0" cy="0" r="17.88511832419998" fill="#60a363" opacity="0.9">
  <animateMotion begin="-0.8815093573038233s" dur="4.5s" repeatCount="indefinite">
    <mpath xlink:href="#path19"></mpath>
  </animateMotion>
</circle><path id="path20" d="M 2658.518918257048 882.5391654185418
c 0 24.796316636785814 -6.0671838579369535 7.122346268012946 -13.1895301259499 7.122346268012946
S 2632.1398580051477 907.3354820553276 2632.1398580051477 882.5391654185418
s 6.0671838579369535 -7.122346268012946 13.1895301259499 -7.122346268012946
S 2658.518918257048 857.7428487817559 2658.518918257048 882.5391654185418
z" fill="none" stroke="none"></path>
<circle cx="0" cy="0" r="12.881238773345085" fill="#60a363" opacity="0.9">
  <animateMotion begin="-0.28284565091891023s" dur="4.5s" repeatCount="indefinite">
    <mpath xlink:href="#path20"></mpath>
  </animateMotion>
</circle><path id="path21" d="M 48.35005128440332 1432.3310608420065
c 0 31.707923658211364 -7.758321746158098 9.10759509331603 -16.865916839474128 9.10759509331603
S 14.618217605455069 1464.0389845002178 14.618217605455069 1432.3310608420065
s 7.758321746158098 -9.10759509331603 16.865916839474128 -9.10759509331603
S 48.35005128440332 1400.6231371837953 48.35005128440332 1432.3310608420065
z" fill="none" stroke="none"></path>
<circle cx="0" cy="0" r="16.16712594428415" fill="#985d4e" opacity="0.9">
  <animateMotion begin="-3.921873664943602s" dur="4.5s" repeatCount="indefinite">
    <mpath xlink:href="#path21"></mpath>
  </animateMotion>
</circle><path id="path22" d="M 665.7661618925305 1507.4120517591411
c 0 21.955465410183354 -5.372081962066139 6.30635708590373 -11.678439047969869 6.30635708590373
S 642.4092837965908 1529.3675171693244 642.4092837965908 1507.4120517591411
s 5.372081962066139 -6.30635708590373 11.678439047969869 -6.30635708590373
S 665.7661618925305 1485.456586348958 665.7661618925305 1507.4120517591411
z" fill="none" stroke="none"></path>
<circle cx="0" cy="0" r="13.381585031751971" fill="#4f563b" opacity="0.9">
  <animateMotion begin="-3.5834512203762157s" dur="4.5s" repeatCount="indefinite">
    <mpath xlink:href="#path22"></mpath>
  </animateMotion>
</circle><path id="path23" d="M 2271.0818368060177 1679.9996789290751
c 0 34.38227503339278 -8.412684316681212 9.875759850017076 -18.288444166698287 9.875759850017076
S 2234.504948472621 1714.3819539624678 2234.504948472621 1679.9996789290751
s 8.412684316681212 -9.875759850017076 18.288444166698287 -9.875759850017076
S 2271.0818368060177 1645.6174038956824 2271.0818368060177 1679.9996789290751
z" fill="none" stroke="none"></path>
<circle cx="0" cy="0" r="16.649653249267793" fill="#60a363" opacity="0.9">
  <animateMotion begin="-3.289184674309254s" dur="4.5s" repeatCount="indefinite">
    <mpath xlink:href="#path23"></mpath>
  </animateMotion>
</circle><path id="path24" d="M 164.58195099352903 1335.865015666787
c 0 20.055229647641944 -4.907130658465581 5.760544686024813 -10.667675344490394 5.760544686024813
S 143.24660030454825 1355.920245314429 143.24660030454825 1335.865015666787
s 4.907130658465581 -5.760544686024813 10.667675344490394 -5.760544686024813
S 164.58195099352903 1315.8097860191451 164.58195099352903 1335.865015666787
z" fill="none" stroke="none"></path>
<circle cx="0" cy="0" r="18.31896777573407" fill="#e0dcb8" opacity="0.9">
  <animateMotion begin="-2.532091242249254s" dur="4.5s" repeatCount="indefinite">
    <mpath xlink:href="#path24"></mpath>
  </animateMotion>
</circle><path id="path25" d="M 1744.473583685151 391.7543688677481
c 0 24.45201873761606 -5.9829407549486096 7.023452190591847 -13.006392945540457 7.023452190591847
S 1718.46079779407 416.20638760536417 1718.46079779407 391.7543688677481
s 5.9829407549486096 -7.023452190591847 13.006392945540457 -7.023452190591847
S 1744.473583685151 367.302350130132 1744.473583685151 391.7543688677481
z" fill="none" stroke="none"></path>
<circle cx="0" cy="0" r="16.409186159972183" fill="#0a4308" opacity="0.9">
  <animateMotion begin="-3.374511361964362s" dur="4.5s" repeatCount="indefinite">
    <mpath xlink:href="#path25"></mpath>
  </animateMotion>
</circle><path id="path26" d="M 2263.9607959597092 352.4021847812959
c 0 35.54379275096625 -8.696885460342804 10.209387279532859 -18.90627273987566 10.209387279532859
S 2226.1482504799583 387.94597753226213 2226.1482504799583 352.4021847812959
s 8.696885460342804 -10.209387279532859 18.90627273987566 -10.209387279532859
S 2263.9607959597092 316.85839203032964 2263.9607959597092 352.4021847812959
z" fill="none" stroke="none"></path>
<circle cx="0" cy="0" r="24.732228301508695" fill="#4f563b" opacity="0.9">
  <animateMotion begin="-2.9545483219530198s" dur="4.5s" repeatCount="indefinite">
    <mpath xlink:href="#path26"></mpath>
  </animateMotion>
</circle><path id="path27" d="M 327.51996539120853 1701.3374364014053
c 0 26.772262399875718 -6.550659948905761 7.689905157411111 -14.240565106316872 7.689905157411111
S 299.0388351785748 1728.109698801281 299.0388351785748 1701.3374364014053
s 6.550659948905761 -7.689905157411111 14.240565106316872 -7.689905157411111
S 327.51996539120853 1674.5651740015296 327.51996539120853 1701.3374364014053
z" fill="none" stroke="none"></path>
<circle cx="0" cy="0" r="23.52333568595603" fill="#9db189" opacity="0.9">
  <animateMotion begin="-3.628217187079153s" dur="4.5s" repeatCount="indefinite">
    <mpath xlink:href="#path27"></mpath>
  </animateMotion>
</circle><path id="path28" d="M 2213.2837104279574 253.51341535028868
c 0 36.608110886206866 -8.957303727476148 10.515095680080696 -19.472399407556843 10.515095680080696
S 2174.338911612844 290.1215262364955 2174.338911612844 253.51341535028868
s 8.957303727476148 -10.515095680080696 19.472399407556843 -10.515095680080696
S 2213.2837104279574 216.9053044640818 2213.2837104279574 253.51341535028868
z" fill="none" stroke="none"></path>
<circle cx="0" cy="0" r="20.99420236175274" fill="#985d4e" opacity="0.9">
  <animateMotion begin="-1.9145757115273287s" dur="4.5s" repeatCount="indefinite">
    <mpath xlink:href="#path28"></mpath>
  </animateMotion>
</circle><path id="path29" d="M 1877.7608650091179 941.5213609770894
c 0 28.305117710200577 -6.925720290793757 8.130193384844846 -15.055913675638603 8.130193384844846
S 1847.6490376578408 969.82647868729 1847.6490376578408 941.5213609770894
s 6.925720290793757 -8.130193384844846 15.055913675638603 -8.130193384844846
S 1877.7608650091179 913.2162432668889 1877.7608650091179 941.5213609770894
z" fill="none" stroke="none"></path>
<circle cx="0" cy="0" r="21.76585995279926" fill="#985d4e" opacity="0.9">
  <animateMotion begin="-1.3113060656252884s" dur="4.5s" repeatCount="indefinite">
    <mpath xlink:href="#path29"></mpath>
  </animateMotion>
</circle><path id="path30" d="M 1414.3810335603303 1097.356185920352
c 0 27.772392926137396 -6.7953727372463835 7.9771766915501034 -14.772549428796486 7.9771766915501034
S 1384.8359347027372 1125.1285788464893 1384.8359347027372 1097.356185920352
s 6.7953727372463835 -7.9771766915501034 14.772549428796486 -7.9771766915501034
S 1414.3810335603303 1069.5837929942145 1414.3810335603303 1097.356185920352
z" fill="none" stroke="none"></path>
<circle cx="0" cy="0" r="13.135794631434432" fill="#2c8c14" opacity="0.9">
  <animateMotion begin="-2.1792753734674624s" dur="4.5s" repeatCount="indefinite">
    <mpath xlink:href="#path30"></mpath>
  </animateMotion>
</circle><path id="path31" d="M 2393.590238416595 118.25586748729577
c 0 31.294580665775463 -7.657184630987612 8.988868914637633 -16.646053545625247 8.988868914637633
S 2360.2981313253445 149.55044815307124 2360.2981313253445 118.25586748729577
s 7.657184630987612 -8.988868914637633 16.646053545625247 -8.988868914637633
S 2393.590238416595 86.9612868215203 2393.590238416595 118.25586748729577
z" fill="none" stroke="none"></path>
<circle cx="0" cy="0" r="16.792512765505478" fill="#0a4308" opacity="0.9">
  <animateMotion begin="-3.7681571596690073s" dur="4.5s" repeatCount="indefinite">
    <mpath xlink:href="#path31"></mpath>
  </animateMotion>
</circle><path id="path32" d="M 1661.8539268003121 764.8712122201176
c 0 37.31616502308509 -9.130551016286777 10.718472932162738 -19.849023948449517 10.718472932162738
S 1622.1558789034132 802.1873772432027 1622.1558789034132 764.8712122201176
s 9.130551016286777 -10.718472932162738 19.849023948449517 -10.718472932162738
S 1661.8539268003121 727.5550471970325 1661.8539268003121 764.8712122201176
z" fill="none" stroke="none"></path>
<circle cx="0" cy="0" r="24.412658711265873" fill="#4f563b" opacity="0.9">
  <animateMotion begin="-2.2948285303630667s" dur="4.5s" repeatCount="indefinite">
    <mpath xlink:href="#path32"></mpath>
  </animateMotion>
</circle><path id="path33" d="M 1960.7557656588401 697.517205440384
c 0 22.691195712318013 -5.552101078545896 6.5176838748147485 -12.069784953360646 6.5176838748147485
S 1936.616195752119 720.2084011527021 1936.616195752119 697.517205440384
s 5.552101078545896 -6.5176838748147485 12.069784953360646 -6.5176838748147485
S 1960.7557656588401 674.826009728066 1960.7557656588401 697.517205440384
z" fill="none" stroke="none"></path>
<circle cx="0" cy="0" r="22.539222734318635" fill="#aca730" opacity="0.9">
  <animateMotion begin="-2.2230354862200095s" dur="4.5s" repeatCount="indefinite">
    <mpath xlink:href="#path33"></mpath>
  </animateMotion>
</circle><path id="path34" d="M 384.7329171493397 763.3689443644179
c 0 36.99157952136905 -9.051131159483916 10.625240926350685 -19.6763720858346 10.625240926350685
S 345.3801729776705 800.360523885787 345.3801729776705 763.3689443644179
s 9.051131159483916 -10.625240926350685 19.6763720858346 -10.625240926350685
S 384.7329171493397 726.3773648430488 384.7329171493397 763.3689443644179
z" fill="none" stroke="none"></path>
<circle cx="0" cy="0" r="23.24309919666566" fill="#985d4e" opacity="0.9">
  <animateMotion begin="-3.5529343749709703s" dur="4.5s" repeatCount="indefinite">
    <mpath xlink:href="#path34"></mpath>
  </animateMotion>
</circle><path id="path35" d="M 558.2669773101716 1522.6365412319813
c 0 29.273940868212016 -7.162772765626344 8.408472377039622 -15.571245142665965 8.408472377039622
S 527.1244870248397 1551.9104821001933 527.1244870248397 1522.6365412319813
s 7.162772765626344 -8.408472377039622 15.571245142665965 -8.408472377039622
S 558.2669773101716 1493.3626003637692 558.2669773101716 1522.6365412319813
z" fill="none" stroke="none"></path>
<circle cx="0" cy="0" r="18.95714320999954" fill="#607c83" opacity="0.9">
  <animateMotion begin="-2.1477126586898905s" dur="4.5s" repeatCount="indefinite">
    <mpath xlink:href="#path35"></mpath>
  </animateMotion>
</circle><path id="path36" d="M 2851.3509054753517 876.7585481668948
c 0 31.482051200288943 -7.703055080921762 9.042716834125548 -16.74577191504731 9.042716834125548
S 2817.8593616452567 908.2405993671838 2817.8593616452567 876.7585481668948
s 7.703055080921762 -9.042716834125548 16.74577191504731 -9.042716834125548
S 2851.3509054753517 845.2764969666058 2851.3509054753517 876.7585481668948
z" fill="none" stroke="none"></path>
<circle cx="0" cy="0" r="14.972682860485808" fill="#985d4e" opacity="0.9">
  <animateMotion begin="-0.2593935215535854s" dur="4.5s" repeatCount="indefinite">
    <mpath xlink:href="#path36"></mpath>
  </animateMotion>
</circle><path id="path37" d="M 2981.633352656843 513.4597473152565
c 0 36.31094100253788 -8.884591947429481 10.429738373069393 -19.314330320498875 10.429738373069393
S 2943.004692015845 549.7706883177945 2943.004692015845 513.4597473152565
s 8.884591947429481 -10.429738373069393 19.314330320498875 -10.429738373069393
S 2981.633352656843 477.14880631271865 2981.633352656843 513.4597473152565
z" fill="none" stroke="none"></path>
<circle cx="0" cy="0" r="17.53742216375394" fill="#466277" opacity="0.9">
  <animateMotion begin="-2.272523715232025s" dur="4.5s" repeatCount="indefinite">
    <mpath xlink:href="#path37"></mpath>
  </animateMotion>
</circle><path id="path38" d="M 2258.6234684493634 378.56888532618746
c 0 30.848042131753726 -7.5479252024503785 8.860607846354794 -16.40853304880517 8.860607846354794
S 2225.806402351753 409.4169274579412 2225.806402351753 378.56888532618746
s 7.5479252024503785 -8.860607846354794 16.40853304880517 -8.860607846354794
S 2258.6234684493634 347.7208431944337 2258.6234684493634 378.56888532618746
z" fill="none" stroke="none"></path>
<circle cx="0" cy="0" r="22.403706412728816" fill="#9db189" opacity="0.9">
  <animateMotion begin="-4.309607742784646s" dur="4.5s" repeatCount="indefinite">
    <mpath xlink:href="#path38"></mpath>
  </animateMotion>
</circle><path id="path39" d="M 1254.4382599097187 975.3496778254706
c 0 21.37647128355038 -5.230413186400624 6.140050262296386 -11.37046344869701 6.140050262296386
S 1231.6973330123249 996.726149109021 1231.6973330123249 975.3496778254706
s 5.230413186400624 -6.140050262296386 11.37046344869701 -6.140050262296386
S 1254.4382599097187 953.9732065419203 1254.4382599097187 975.3496778254706
z" fill="none" stroke="none"></path>
<circle cx="0" cy="0" r="17.00678394174691" fill="#9db189" opacity="0.9">
  <animateMotion begin="-1.1924132139466996s" dur="4.5s" repeatCount="indefinite">
    <mpath xlink:href="#path39"></mpath>
  </animateMotion>
</circle><path id="path40" d="M 1332.5925084039702 1198.0886659129842
c 0 26.14570666417171 -6.397353758254779 7.509937020559959 -13.907290778814739 7.509937020559959
S 1304.7779268463407 1224.234372577156 1304.7779268463407 1198.0886659129842
s 6.397353758254779 -7.509937020559959 13.907290778814739 -7.509937020559959
S 1332.5925084039702 1171.9429592488125 1332.5925084039702 1198.0886659129842
z" fill="none" stroke="none"></path>
<circle cx="0" cy="0" r="19.625779629003627" fill="#607c83" opacity="0.9">
  <animateMotion begin="-2.6194858180561362s" dur="4.5s" repeatCount="indefinite">
    <mpath xlink:href="#path40"></mpath>
  </animateMotion>
</circle><path id="path41" d="M 153.80684741517658 1566.4104288142034
c 0 26.891550540217523 -6.5798474726064144 7.724168772190139 -14.304016244796554 7.724168772190139
S 125.19881492558348 1593.301979354421 125.19881492558348 1566.4104288142034
s 6.5798474726064144 -7.724168772190139 14.304016244796554 -7.724168772190139
S 153.80684741517658 1539.5188782739858 153.80684741517658 1566.4104288142034
z" fill="none" stroke="none"></path>
<circle cx="0" cy="0" r="21.94259612907266" fill="#aca730" opacity="0.9">
  <animateMotion begin="-3.026131737386166s" dur="4.5s" repeatCount="indefinite">
    <mpath xlink:href="#path41"></mpath>
  </animateMotion>
</circle><path id="path42" d="M 2470.8103462880918 825.6186479667075
c 0 32.36470148006445 -7.91902270256896 9.296244042146173 -17.21526674471513 9.296244042146173
S 2436.379812798661 857.983349446772 2436.379812798661 825.6186479667075
s 7.91902270256896 -9.296244042146173 17.21526674471513 -9.296244042146173
S 2470.8103462880918 793.253946486643 2470.8103462880918 825.6186479667075
z" fill="none" stroke="none"></path>
<circle cx="0" cy="0" r="19.022947055529226" fill="#607c83" opacity="0.9">
  <animateMotion begin="-0.28059270086170796s" dur="4.5s" repeatCount="indefinite">
    <mpath xlink:href="#path42"></mpath>
  </animateMotion>
</circle><path id="path43" d="M 2564.7918421237264 368.28005001806724
c 0 30.079632975690668 -7.35991019617963 8.639894578123915 -15.999804774303545 8.639894578123915
S 2532.7922325751197 398.35968299375793 2532.7922325751197 368.28005001806724
s 7.35991019617963 -8.639894578123915 15.999804774303545 -8.639894578123915
S 2564.7918421237264 338.20041704237656 2564.7918421237264 368.28005001806724
z" fill="none" stroke="none"></path>
<circle cx="0" cy="0" r="20.001836082177427" fill="#466277" opacity="0.9">
  <animateMotion begin="-2.0801890824442273s" dur="4.5s" repeatCount="indefinite">
    <mpath xlink:href="#path43"></mpath>
  </animateMotion>
</circle><path id="path44" d="M 2521.6779084176605 267.3023322743944
c 0 35.61273255104564 -8.7137537092984 10.22918913700247 -18.94294284630087 10.22918913700247
S 2483.792022725059 302.91506482544 2483.792022725059 267.3023322743944
s 8.7137537092984 -10.22918913700247 18.94294284630087 -10.22918913700247
S 2521.6779084176605 231.68959972334878 2521.6779084176605 267.3023322743944
z" fill="none" stroke="none"></path>
<circle cx="0" cy="0" r="15.74425732399957" fill="#4f563b" opacity="0.9">
  <animateMotion begin="-2.4027885465084107s" dur="4.5s" repeatCount="indefinite">
    <mpath xlink:href="#path44"></mpath>
  </animateMotion>
</circle><path id="path45" d="M 2334.288482242317 1580.109126712393
c 0 31.057715558465517 -7.599228274943689 8.920833192325203 -16.520061467268892 8.920833192325203
S 2301.248359307779 1611.1668422708585 2301.248359307779 1580.109126712393
s 7.599228274943689 -8.920833192325203 16.520061467268892 -8.920833192325203
S 2334.288482242317 1549.0514111539273 2334.288482242317 1580.109126712393
z" fill="none" stroke="none"></path>
<circle cx="0" cy="0" r="20.98515940473483" fill="#466277" opacity="0.9">
  <animateMotion begin="-3.1858284755550272s" dur="4.5s" repeatCount="indefinite">
    <mpath xlink:href="#path45"></mpath>
  </animateMotion>
</circle><path id="path46" d="M 2037.668113305585 1608.202851231605
c 0 19.291984402741956 -4.720379162373032 5.54131466887269 -10.261693831245722 5.54131466887269
S 2017.1447256430934 1627.494835634347 2017.1447256430934 1608.202851231605
s 4.720379162373032 -5.54131466887269 10.261693831245722 -5.54131466887269
S 2037.668113305585 1588.9108668288632 2037.668113305585 1608.202851231605
z" fill="none" stroke="none"></path>
<circle cx="0" cy="0" r="21.765993457059867" fill="#4f563b" opacity="0.9">
  <animateMotion begin="-3.678151684586593s" dur="4.5s" repeatCount="indefinite">
    <mpath xlink:href="#path46"></mpath>
  </animateMotion>
</circle><path id="path47" d="M 1475.4396304882325 1194.7260551964714
c 0 36.83975226940769 -9.013981938259327 10.581630971000083 -19.59561290925941 10.581630971000083
S 1436.2484046697136 1231.565807465879 1436.2484046697136 1194.7260551964714
s 9.013981938259327 -10.581630971000083 19.59561290925941 -10.581630971000083
S 1475.4396304882325 1157.8863029270638 1475.4396304882325 1194.7260551964714
z" fill="none" stroke="none"></path>
<circle cx="0" cy="0" r="24.326508593297813" fill="#9db189" opacity="0.9">
  <animateMotion begin="-0.5233418782155893s" dur="4.5s" repeatCount="indefinite">
    <mpath xlink:href="#path47"></mpath>
  </animateMotion>
</circle><path id="path48" d="M 2715.30058608183 31.006754721589434
c 0 29.953395285673746 -7.329022250749959 8.60363481609778 -15.932657066847737 8.60363481609778
S 2683.4352719481344 60.96015000726318 2683.4352719481344 31.006754721589434
s 7.329022250749959 -8.60363481609778 15.932657066847737 -8.60363481609778
S 2715.30058608183 1.053359435915688 2715.30058608183 31.006754721589434
z" fill="none" stroke="none"></path>
<circle cx="0" cy="0" r="14.938109610718936" fill="#2c8c14" opacity="0.9">
  <animateMotion begin="-2.219535795221167s" dur="4.5s" repeatCount="indefinite">
    <mpath xlink:href="#path48"></mpath>
  </animateMotion>
</circle><path id="path49" d="M 2864.5287132407775 81.859113700075
c 0 26.21067290659684 -6.413249753741779 7.52859753700122 -13.941847290742999 7.52859753700122
S 2836.645018659292 108.06978660667184 2836.645018659292 81.859113700075
s 6.413249753741779 -7.52859753700122 13.941847290742999 -7.52859753700122
S 2864.5287132407775 55.64844079347816 2864.5287132407775 81.859113700075
z" fill="none" stroke="none"></path>
<circle cx="0" cy="0" r="19.0939851878521" fill="#e0dcb8" opacity="0.9">
  <animateMotion begin="-1.8270545879812108s" dur="4.5s" repeatCount="indefinite">
    <mpath xlink:href="#path49"></mpath>
  </animateMotion>
</circle><path id="path50" d="M 2966.4331449673227 1379.3035454736864
c 0 31.855034276482087 -7.794316897437105 9.14985027090443 -16.944167168341536 9.14985027090443
S 2932.5448106306394 1411.1585797501684 2932.5448106306394 1379.3035454736864
s 7.794316897437105 -9.14985027090443 16.944167168341536 -9.14985027090443
S 2966.4331449673227 1347.4485111972044 2966.4331449673227 1379.3035454736864
z" fill="none" stroke="none"></path>
<circle cx="0" cy="0" r="16.699531825991702" fill="#0a4308" opacity="0.9">
  <animateMotion begin="-3.6606453950214064s" dur="4.5s" repeatCount="indefinite">
    <mpath xlink:href="#path50"></mpath>
  </animateMotion>
</circle><path id="path51" d="M 245.1770030831379 996.778993314817
c 0 34.54733937834382 -8.453072401084126 9.923171949098759 -18.376244350182883 9.923171949098759
S 208.42451438277214 1031.3263326931608 208.42451438277214 996.778993314817
s 8.453072401084126 -9.923171949098759 18.376244350182883 -9.923171949098759
S 245.1770030831379 962.2316539364731 245.1770030831379 996.778993314817
z" fill="none" stroke="none"></path>
<circle cx="0" cy="0" r="14.793287770494118" fill="#0a4308" opacity="0.9">
  <animateMotion begin="-1.3156075103276454s" dur="4.5s" repeatCount="indefinite">
    <mpath xlink:href="#path51"></mpath>
  </animateMotion>
</circle><path id="path52" d="M 805.1080403510446 1081.3084648948789
c 0 33.13171574386308 -8.106696405413306 9.516556649833014 -17.62325305524632 9.516556649833014
S 769.8615342405519 1114.4401806387418 769.8615342405519 1081.3084648948789
s 8.106696405413306 -9.516556649833014 17.62325305524632 -9.516556649833014
S 805.1080403510446 1048.1767491510159 805.1080403510446 1081.3084648948789
z" fill="none" stroke="none"></path>
<circle cx="0" cy="0" r="22.115374604834926" fill="#607c83" opacity="0.9">
  <animateMotion begin="-0.9146622354344045s" dur="4.5s" repeatCount="indefinite">
    <mpath xlink:href="#path52"></mpath>
  </animateMotion>
</circle><path id="path53" d="M 755.1213542982133 479.7639317146898
c 0 30.929167351214197 -7.567774990190707 8.883909771093439 -16.451684761284145 8.883909771093439
S 722.217984775645 510.693099065904 722.217984775645 479.7639317146898
s 7.567774990190707 -8.883909771093439 16.451684761284145 -8.883909771093439
S 755.1213542982133 448.83476436347564 755.1213542982133 479.7639317146898
z" fill="none" stroke="none"></path>
<circle cx="0" cy="0" r="22.14311934893472" fill="#60a363" opacity="0.9">
  <animateMotion begin="-1.4069132220175171s" dur="4.5s" repeatCount="indefinite">
    <mpath xlink:href="#path53"></mpath>
  </animateMotion>
</circle><path id="path54" d="M 261.97886352881176 1290.3615882200986
c 0 23.17516087414168 -5.6705180862261555 6.6566951447002705 -12.327213230926425 6.6566951447002705
S 237.3244370669589 1313.5367490942403 237.3244370669589 1290.3615882200986
s 5.6705180862261555 -6.6566951447002705 12.327213230926425 -6.6566951447002705
S 261.97886352881176 1267.1864273459569 261.97886352881176 1290.3615882200986
z" fill="none" stroke="none"></path>
<circle cx="0" cy="0" r="19.89982085772991" fill="#4f563b" opacity="0.9">
  <animateMotion begin="-2.650248417740247s" dur="4.5s" repeatCount="indefinite">
    <mpath xlink:href="#path54"></mpath>
  </animateMotion>
</circle><path id="path55" d="M 2898.9113562889584 940.9191071088796
c 0 35.14257664651644 -8.598715562445511 10.094144355914297 -18.692859918359808 10.094144355914297
S 2861.525636452239 976.0616837553961 2861.525636452239 940.9191071088796
s 8.598715562445511 -10.094144355914297 18.692859918359808 -10.094144355914297
S 2898.9113562889584 905.7765304623632 2898.9113562889584 940.9191071088796
z" fill="none" stroke="none"></path>
<circle cx="0" cy="0" r="17.110924767853835" fill="#985d4e" opacity="0.9">
  <animateMotion begin="-3.3554478730091812s" dur="4.5s" repeatCount="indefinite">
    <mpath xlink:href="#path55"></mpath>
  </animateMotion>
</circle><path id="path56" d="M 1215.6724650769092 98.35110058971327
c 0 31.085179594903494 -7.605948198752981 8.92872179853611 -16.53466999728909 8.92872179853611
S 1182.6031250823312 129.43628018461675 1182.6031250823312 98.35110058971327
s 7.605948198752981 -8.92872179853611 16.53466999728909 -8.92872179853611
S 1215.6724650769092 67.26592099480978 1215.6724650769092 98.35110058971327
z" fill="none" stroke="none"></path>
<circle cx="0" cy="0" r="13.761673563988799" fill="#985d4e" opacity="0.9">
  <animateMotion begin="-0.9606853827453131s" dur="4.5s" repeatCount="indefinite">
    <mpath xlink:href="#path56"></mpath>
  </animateMotion>
</circle><path id="path57" d="M 727.043795963056 1838.5339393568468
c 0 29.464204392610867 -7.209326606702659 8.463122538303121 -15.67244914500578 8.463122538303121
S 695.6988976730445 1867.9981437494575 695.6988976730445 1838.5339393568468
s 7.209326606702659 -8.463122538303121 15.67244914500578 -8.463122538303121
S 727.043795963056 1809.069734964236 727.043795963056 1838.5339393568468
z" fill="none" stroke="none"></path>
<circle cx="0" cy="0" r="21.176953657377425" fill="#607c83" opacity="0.9">
  <animateMotion begin="-2.2397049639737308s" dur="4.5s" repeatCount="indefinite">
    <mpath xlink:href="#path57"></mpath>
  </animateMotion>
</circle><path id="path58" d="M 2635.5887357731017 601.6410256679915
c 0 31.702156701343732 -7.756910682243679 9.105938626981711 -16.86284930922539 9.105938626981711
S 2601.8630371546506 633.3431823693352 2601.8630371546506 601.6410256679915
s 7.756910682243679 -9.105938626981711 16.86284930922539 -9.105938626981711
S 2635.5887357731017 569.9388689666478 2635.5887357731017 601.6410256679915
z" fill="none" stroke="none"></path>
<circle cx="0" cy="0" r="24.709765235665344" fill="#9db189" opacity="0.9">
  <animateMotion begin="-2.738262995242305s" dur="4.5s" repeatCount="indefinite">
    <mpath xlink:href="#path58"></mpath>
  </animateMotion>
</circle><path id="path59" d="M 620.9532689050844 336.5598945894422
c 0 37.577722833837115 -9.194549204023973 10.793601239506405 -19.98815044353038 10.793601239506405
S 580.9769680180237 374.1376174232793 580.9769680180237 336.5598945894422
s 9.194549204023973 -10.793601239506405 19.98815044353038 -10.793601239506405
S 620.9532689050844 298.98217175560507 620.9532689050844 336.5598945894422
z" fill="none" stroke="none"></path>
<circle cx="0" cy="0" r="21.52887638753651" fill="#607c83" opacity="0.9">
  <animateMotion begin="-4.250761047297985s" dur="4.5s" repeatCount="indefinite">
    <mpath xlink:href="#path59"></mpath>
  </animateMotion>
</circle><path id="path60" d="M 737.7537591047643 278.77649860486986
c 0 21.41652091957228 -5.240212565427259 6.15155388115374 -11.391766446581 6.15155388115374
S 714.9702262116024 300.19301952444215 714.9702262116024 278.77649860486986
s 5.240212565427259 -6.15155388115374 11.391766446581 -6.15155388115374
S 737.7537591047643 257.35997768529757 737.7537591047643 278.77649860486986
z" fill="none" stroke="none"></path>
<circle cx="0" cy="0" r="22.093839819502847" fill="#0a4308" opacity="0.9">
  <animateMotion begin="-3.215981842995947s" dur="4.5s" repeatCount="indefinite">
    <mpath xlink:href="#path60"></mpath>
  </animateMotion>
</circle><path id="path61" d="M 1146.3710027450581 1511.7590334937893
c 0 21.684016887164756 -5.305663706433929 6.2283878292920045 -11.534051535725933 6.2283878292920045
S 1123.3028996736064 1533.443050380954 1123.3028996736064 1511.7590334937893
s 5.305663706433929 -6.2283878292920045 11.534051535725933 -6.2283878292920045
S 1146.3710027450581 1490.0750166066246 1146.3710027450581 1511.7590334937893
z" fill="none" stroke="none"></path>
<circle cx="0" cy="0" r="13.529843018955997" fill="#0a4308" opacity="0.9">
  <animateMotion begin="-0.6307458601205962s" dur="4.5s" repeatCount="indefinite">
    <mpath xlink:href="#path61"></mpath>
  </animateMotion>
</circle><path id="path62" d="M 1562.571809214416 1386.3054928608894
c 0 28.693597784093583 -7.020773925895238 8.241778086920498 -15.262552012815735 8.241778086920498
S 1532.0467051887842 1414.999090644983 1532.0467051887842 1386.3054928608894
s 7.020773925895238 -8.241778086920498 15.262552012815735 -8.241778086920498
S 1562.571809214416 1357.611895076796 1562.571809214416 1386.3054928608894
z" fill="none" stroke="none"></path>
<circle cx="0" cy="0" r="21.677884708504095" fill="#e0dcb8" opacity="0.9">
  <animateMotion begin="-0.8903675399956095s" dur="4.5s" repeatCount="indefinite">
    <mpath xlink:href="#path62"></mpath>
  </animateMotion>
</circle><path id="path63" d="M 741.5772754963509 227.73194871870757
c 0 30.277364485889745 -7.408291310377277 8.696689799138545 -16.104981109515823 8.696689799138545
S 709.3673132773192 258.00931320459733 709.3673132773192 227.73194871870757
s 7.408291310377277 -8.696689799138545 16.104981109515823 -8.696689799138545
S 741.5772754963509 197.45458423281784 741.5772754963509 227.73194871870757
z" fill="none" stroke="none"></path>
<circle cx="0" cy="0" r="16.096500938236375" fill="#466277" opacity="0.9">
  <animateMotion begin="-0.8781896125811618s" dur="4.5s" repeatCount="indefinite">
    <mpath xlink:href="#path63"></mpath>
  </animateMotion>
</circle><path id="path64" d="M 2699.4569346840276 1517.7283615764618
c 0 24.46034895213378 -5.9849789989263495 7.025844911783107 -13.010823910709457 7.025844911783107
S 2673.435286862609 1542.1887105285955 2673.435286862609 1517.7283615764618
s 5.9849789989263495 -7.025844911783107 13.010823910709457 -7.025844911783107
S 2699.4569346840276 1493.268012624328 2699.4569346840276 1517.7283615764618
z" fill="none" stroke="none"></path>
<circle cx="0" cy="0" r="21.26058613048827" fill="#0a4308" opacity="0.9">
  <animateMotion begin="-3.908861508161279s" dur="4.5s" repeatCount="indefinite">
    <mpath xlink:href="#path64"></mpath>
  </animateMotion>
</circle><path id="path65" d="M 2601.476341938714 1565.8322375893347
c 0 36.53178332205005 -8.938627834118629 10.493171805269697 -19.431799639388323 10.493171805269697
S 2562.6127426599373 1602.3640209113848 2562.6127426599373 1565.8322375893347
s 8.938627834118629 -10.493171805269697 19.431799639388323 -10.493171805269697
S 2601.476341938714 1529.3004542672845 2601.476341938714 1565.8322375893347
z" fill="none" stroke="none"></path>
<circle cx="0" cy="0" r="24.067990605220206" fill="#985d4e" opacity="0.9">
  <animateMotion begin="-0.1949446212186119s" dur="4.5s" repeatCount="indefinite">
    <mpath xlink:href="#path65"></mpath>
  </animateMotion>
</circle><path id="path66" d="M 520.9941287742527 1097.2478227657093
c 0 34.10220505268473 -8.344156555444135 9.79531421726051 -18.139470772704644 9.79531421726051
S 484.7151872288433 1131.350027818394 484.7151872288433 1097.2478227657093
s 8.344156555444135 -9.79531421726051 18.139470772704644 -9.79531421726051
S 520.9941287742527 1063.1456177130246 520.9941287742527 1097.2478227657093
z" fill="none" stroke="none"></path>
<circle cx="0" cy="0" r="13.602411561684209" fill="#0a4308" opacity="0.9">
  <animateMotion begin="-4.026462577567511s" dur="4.5s" repeatCount="indefinite">
    <mpath xlink:href="#path66"></mpath>
  </animateMotion>
</circle><path id="path67" d="M 2834.2152115248155 713.9114620188129
c 0 25.83202662912066 -6.320602260316757 7.41983743602402 -13.740439696340776 7.41983743602402
S 2806.734332132134 739.7434886479335 2806.734332132134 713.9114620188129
s 6.320602260316757 -7.41983743602402 13.740439696340776 -7.41983743602402
S 2834.2152115248155 688.0794353896923 2834.2152115248155 713.9114620188129
z" fill="none" stroke="none"></path>
<circle cx="0" cy="0" r="16.90090788707703" fill="#9db189" opacity="0.9">
  <animateMotion begin="-0.5498532261647264s" dur="4.5s" repeatCount="indefinite">
    <mpath xlink:href="#path67"></mpath>
  </animateMotion>
</circle><path id="path68" d="M 448.10090437990726 803.1180722373189
c 0 25.570090861196366 -6.256511593696983 7.344600566513851 -13.601112160210834 7.344600566513851
S 420.89868005948557 828.6881630985152 420.89868005948557 803.1180722373189
s 6.256511593696983 -7.344600566513851 13.601112160210834 -7.344600566513851
S 448.10090437990726 777.5479813761225 448.10090437990726 803.1180722373189
z" fill="none" stroke="none"></path>
<circle cx="0" cy="0" r="14.601026523008507" fill="#985d4e" opacity="0.9">
  <animateMotion begin="-2.812360453359739s" dur="4.5s" repeatCount="indefinite">
    <mpath xlink:href="#path68"></mpath>
  </animateMotion>
</circle><path id="path69" d="M 1949.9799274118786 1519.054518923917
c 0 32.79882452421597 -8.025244298478375 9.420938959083312 -17.446183257561685 9.420938959083312
S 1915.0875608967553 1551.8533434481328 1915.0875608967553 1519.054518923917
s 8.025244298478375 -9.420938959083312 17.446183257561685 -9.420938959083312
S 1949.9799274118786 1486.255694399701 1949.9799274118786 1519.054518923917
z" fill="none" stroke="none"></path>
<circle cx="0" cy="0" r="22.359357062922445" fill="#607c83" opacity="0.9">
  <animateMotion begin="-1.4360060060453361s" dur="4.5s" repeatCount="indefinite">
    <mpath xlink:href="#path69"></mpath>
  </animateMotion>
</circle><path id="path70" d="M 726.6168316485797 463.1415333400645
c 0 30.40410608536031 -7.4393025528009264 8.733094301114132 -16.17239685391506 8.733094301114132
S 694.2720379407496 493.5456394254248 694.2720379407496 463.1415333400645
s 7.4393025528009264 -8.733094301114132 16.17239685391506 -8.733094301114132
S 726.6168316485797 432.7374272547042 726.6168316485797 463.1415333400645
z" fill="none" stroke="none"></path>
<circle cx="0" cy="0" r="19.02180748693643" fill="#e0dcb8" opacity="0.9">
  <animateMotion begin="-1.2582404880802438s" dur="4.5s" repeatCount="indefinite">
    <mpath xlink:href="#path70"></mpath>
  </animateMotion>
</circle><path id="path71" d="M 77.29755808965838 1185.4103914870493
c 0 37.41773316791896 -9.155402796405703 10.747646760998 -19.9030495574037 10.747646760998
S 37.491458974850985 1222.8281246549682 37.491458974850985 1185.4103914870493
s 9.155402796405703 -10.747646760998 19.9030495574037 -10.747646760998
S 77.29755808965838 1147.9926583191304 77.29755808965838 1185.4103914870493
z" fill="none" stroke="none"></path>
<circle cx="0" cy="0" r="13.299504787159947" fill="#aca730" opacity="0.9">
  <animateMotion begin="-3.817977687957052s" dur="4.5s" repeatCount="indefinite">
    <mpath xlink:href="#path71"></mpath>
  </animateMotion>
</circle><path id="path72" d="M 301.78923509620444 722.1418743572315
c 0 26.37106452761924 -6.452494512077047 7.5746674706991435 -14.02716198277619 7.5746674706991435
S 273.73491113065205 748.5129388848507 273.73491113065205 722.1418743572315
s 6.452494512077047 -7.5746674706991435 14.02716198277619 -7.5746674706991435
S 301.78923509620444 695.7708098296123 301.78923509620444 722.1418743572315
z" fill="none" stroke="none"></path>
<circle cx="0" cy="0" r="14.584082186810294" fill="#985d4e" opacity="0.9">
  <animateMotion begin="-0.5846370361138227s" dur="4.5s" repeatCount="indefinite">
    <mpath xlink:href="#path72"></mpath>
  </animateMotion>
</circle><path id="path73" d="M 124.46060298145215 1508.995330291721
c 0 29.095112857601162 -7.119016975796028 8.357106884630122 -15.47612386042615 8.357106884630122
S 93.50835526059987 1538.0904431493223 93.50835526059987 1508.995330291721
s 7.119016975796028 -8.357106884630122 15.47612386042615 -8.357106884630122
S 124.46060298145215 1479.90021743412 124.46060298145215 1508.995330291721
z" fill="none" stroke="none"></path>
<circle cx="0" cy="0" r="16.71422254267092" fill="#aca730" opacity="0.9">
  <animateMotion begin="-1.7671646278178832s" dur="4.5s" repeatCount="indefinite">
    <mpath xlink:href="#path73"></mpath>
  </animateMotion>
</circle><path id="path74" d="M 624.2259942786563 1655.161289104257
c 0 37.25056687672077 -9.114500406006146 10.699630911398518 -19.814131317404666 10.699630911398518
S 584.597731643847 1692.4118559809779 584.597731643847 1655.161289104257
s 9.114500406006146 -10.699630911398518 19.814131317404666 -10.699630911398518
S 624.2259942786563 1617.9107222275363 624.2259942786563 1655.161289104257
z" fill="none" stroke="none"></path>
<circle cx="0" cy="0" r="24.85168909202382" fill="#985d4e" opacity="0.9">
  <animateMotion begin="-3.956433190920058s" dur="4.5s" repeatCount="indefinite">
    <mpath xlink:href="#path74"></mpath>
  </animateMotion>
</circle><path id="path75" d="M 1730.2854613484324 1571.4406783047539
c 0 33.22453276466282 -8.129406953055796 9.543216857935066 -17.672623810990864 9.543216857935066
S 1694.9402137264506 1604.6652110694167 1694.9402137264506 1571.4406783047539
s 8.129406953055796 -9.543216857935066 17.672623810990864 -9.543216857935066
S 1730.2854613484324 1538.216145540091 1730.2854613484324 1571.4406783047539
z" fill="none" stroke="none"></path>
<circle cx="0" cy="0" r="24.410833596743494" fill="#9db189" opacity="0.9">
  <animateMotion begin="-4.402391536812899s" dur="4.5s" repeatCount="indefinite">
    <mpath xlink:href="#path75"></mpath>
  </animateMotion>
</circle><path id="path76" d="M 1476.430776772012 1249.7685226794772
c 0 32.32830937989665 -7.910118252527904 9.285790992097976 -17.19590924462588 9.285790992097976
S 1442.0389582827602 1282.0968320593738 1442.0389582827602 1249.7685226794772
s 7.910118252527904 -9.285790992097976 17.19590924462588 -9.285790992097976
S 1476.430776772012 1217.4402132995806 1476.430776772012 1249.7685226794772
z" fill="none" stroke="none"></path>
<circle cx="0" cy="0" r="19.870242788645946" fill="#e0dcb8" opacity="0.9">
  <animateMotion begin="-3.1645321063522127s" dur="4.5s" repeatCount="indefinite">
    <mpath xlink:href="#path76"></mpath>
  </animateMotion>
</circle><path id="path77" d="M 1259.7929710765607 1516.6019448982688
c 0 35.15792857971155 -8.602471886525167 10.098553953746936 -18.701025840272102 10.098553953746936
S 1222.3909193960167 1551.7598734779804 1222.3909193960167 1516.6019448982688
s 8.602471886525167 -10.098553953746936 18.701025840272102 -10.098553953746936
S 1259.7929710765607 1481.4440163185573 1259.7929710765607 1516.6019448982688
z" fill="none" stroke="none"></path>
<circle cx="0" cy="0" r="13.259714213236768" fill="#aca730" opacity="0.9">
  <animateMotion begin="-4.082825979807956s" dur="4.5s" repeatCount="indefinite">
    <mpath xlink:href="#path77"></mpath>
  </animateMotion>
</circle><path id="path78" d="M 2606.369336207363 911.410532620554
c 0 27.9034099612869 -6.827430096910624 8.014809244199428 -14.842239341110053 8.014809244199428
S 2576.684857525143 939.3139425818409 2576.684857525143 911.410532620554
s 6.827430096910624 -8.014809244199428 14.842239341110053 -8.014809244199428
S 2606.369336207363 883.5071226592671 2606.369336207363 911.410532620554
z" fill="none" stroke="none"></path>
<circle cx="0" cy="0" r="15.482320881356845" fill="#2c8c14" opacity="0.9">
  <animateMotion begin="-0.25440947830208915s" dur="4.5s" repeatCount="indefinite">
    <mpath xlink:href="#path78"></mpath>
  </animateMotion>
</circle><path id="path79" d="M 601.7262649626534 937.1255438829905
c 0 28.84851257724228 -7.058678609325238 8.286274889207888 -15.344953498533126 8.286274889207888
S 571.0363579655873 965.9740564602329 571.0363579655873 937.1255438829905
s 7.058678609325238 -8.286274889207888 15.344953498533126 -8.286274889207888
S 601.7262649626534 908.2770313057482 601.7262649626534 937.1255438829905
z" fill="none" stroke="none"></path>
<circle cx="0" cy="0" r="22.306838648183724" fill="#607c83" opacity="0.9">
  <animateMotion begin="-3.120547394170172s" dur="4.5s" repeatCount="indefinite">
    <mpath xlink:href="#path79"></mpath>
  </animateMotion>
</circle><path id="path80" d="M 2324.9475580950552 1515.7774883294721
c 0 31.26286365767556 -7.649424086452529 8.979758710183406 -16.629182796635934 8.979758710183406
S 2291.689192501783 1547.0403519871477 2291.689192501783 1515.7774883294721
s 7.649424086452529 -8.979758710183406 16.629182796635934 -8.979758710183406
S 2324.9475580950552 1484.5146246717966 2324.9475580950552 1515.7774883294721
z" fill="none" stroke="none"></path>
<circle cx="0" cy="0" r="23.307613443027712" fill="#607c83" opacity="0.9">
  <animateMotion begin="-4.276027481334636s" dur="4.5s" repeatCount="indefinite">
    <mpath xlink:href="#path80"></mpath>
  </animateMotion>
</circle><path id="path81" d="M 132.3342673540097 1342.8150905316497
c 0 28.463251538664913 -6.964412610524392 8.175614803659071 -15.140027414183464 8.175614803659071
S 102.05421252564278 1371.2783420703147 102.05421252564278 1342.8150905316497
s 6.964412610524392 -8.175614803659071 15.140027414183464 -8.175614803659071
S 132.3342673540097 1314.3518389929848 132.3342673540097 1342.8150905316497
z" fill="none" stroke="none"></path>
<circle cx="0" cy="0" r="19.887906228685146" fill="#9db189" opacity="0.9">
  <animateMotion begin="-2.044415554024426s" dur="4.5s" repeatCount="indefinite">
    <mpath xlink:href="#path81"></mpath>
  </animateMotion>
</circle><path id="path82" d="M 2933.738233313405 1433.2679815983954
c 0 19.850465730924995 -4.857028849056115 5.70172951845718 -10.558758367513295 5.70172951845718
S 2912.6207165783785 1453.1184473293204 2912.6207165783785 1433.2679815983954
s 4.857028849056115 -5.70172951845718 10.558758367513295 -5.70172951845718
S 2933.738233313405 1413.4175158674705 2933.738233313405 1433.2679815983954
z" fill="none" stroke="none"></path>
<circle cx="0" cy="0" r="23.29568590168743" fill="#aca730" opacity="0.9">
  <animateMotion begin="-1.0545246739858043s" dur="4.5s" repeatCount="indefinite">
    <mpath xlink:href="#path82"></mpath>
  </animateMotion>
</circle><path id="path83" d="M 1165.4097342746477 158.55311826885116
c 0 31.203549942481228 -7.634911156139022 8.962721791989289 -16.59763294812831 8.962721791989289
S 1132.2144683783908 189.7566682113324 1132.2144683783908 158.55311826885116
s 7.634911156139022 -8.962721791989289 16.59763294812831 -8.962721791989289
S 1165.4097342746477 127.34956832636993 1165.4097342746477 158.55311826885116
z" fill="none" stroke="none"></path>
<circle cx="0" cy="0" r="17.39942451293395" fill="#60a363" opacity="0.9">
  <animateMotion begin="-4.017569620479792s" dur="4.5s" repeatCount="indefinite">
    <mpath xlink:href="#path83"></mpath>
  </animateMotion>
</circle><path id="path84" d="M 515.4087144715146 1921.7371442473393
c 0 32.01878037587091 -7.834382432393944 9.196883724984197 -17.03126615737814 9.196883724984197
S 481.3461821567583 1953.7559246232101 481.3461821567583 1921.7371442473393
s 7.834382432393944 -9.196883724984197 17.03126615737814 -9.196883724984197
S 515.4087144715146 1889.7183638714685 515.4087144715146 1921.7371442473393
z" fill="none" stroke="none"></path>
<circle cx="0" cy="0" r="13.109213340583754" fill="#aca730" opacity="0.9">
  <animateMotion begin="-0.012987186831242226s" dur="4.5s" repeatCount="indefinite">
    <mpath xlink:href="#path84"></mpath>
  </animateMotion>
</circle><path id="path85" d="M 2116.7539331003354 1405.7832241065057
c 0 36.839253273777416 -9.013859843583836 10.581487642467982 -19.595347486051818 10.581487642467982
S 2077.563238128232 1442.622477380283 2077.563238128232 1405.7832241065057
s 9.013859843583836 -10.581487642467982 19.595347486051818 -10.581487642467982
S 2116.7539331003354 1368.9439708327284 2116.7539331003354 1405.7832241065057
z" fill="none" stroke="none"></path>
<circle cx="0" cy="0" r="13.406644202253407" fill="#2c8c14" opacity="0.9">
  <animateMotion begin="-2.263613566604337s" dur="4.5s" repeatCount="indefinite">
    <mpath xlink:href="#path85"></mpath>
  </animateMotion>
</circle><path id="path86" d="M 1653.8013007513312 481.6955835779369
c 0 36.674638350498995 -8.973581724058263 10.534204632590138 -19.5077863566484 10.534204632590138
S 1614.7857280380342 518.3702219284359 1614.7857280380342 481.6955835779369
s 8.973581724058263 -10.534204632590138 19.5077863566484 -10.534204632590138
S 1653.8013007513312 445.0209452274379 1653.8013007513312 481.6955835779369
z" fill="none" stroke="none"></path>
<circle cx="0" cy="0" r="12.990902856711747" fill="#0a4308" opacity="0.9">
  <animateMotion begin="-0.02198966738481478s" dur="4.5s" repeatCount="indefinite">
    <mpath xlink:href="#path86"></mpath>
  </animateMotion>
</circle><path id="path87" d="M 830.9789009575929 767.7990030412103
c 0 20.366269496836406 -4.983236153481248 5.849885919304074 -10.833122072785322 5.849885919304074
S 809.3126568120224 788.1652725380467 809.3126568120224 767.7990030412103
s 4.983236153481248 -5.849885919304074 10.833122072785322 -5.849885919304074
S 830.9789009575929 747.432733544374 830.9789009575929 767.7990030412103
z" fill="none" stroke="none"></path>
<circle cx="0" cy="0" r="14.015667668697043" fill="#4f563b" opacity="0.9">
  <animateMotion begin="-0.9058603533214553s" dur="4.5s" repeatCount="indefinite">
    <mpath xlink:href="#path87"></mpath>
  </animateMotion>
</circle><path id="path88" d="M 60.07847048759233 1937.9552869474921
c 0 33.947363108211775 -8.306269696690114 9.750838339592745 -18.05710803628286 9.750838339592745
S 23.964254415026613 1971.9026500557038 23.964254415026613 1937.9552869474921
s 8.306269696690114 -9.750838339592745 18.05710803628286 -9.750838339592745
S 60.07847048759233 1904.0079238392805 60.07847048759233 1937.9552869474921
z" fill="none" stroke="none"></path>
<circle cx="0" cy="0" r="19.36993122775606" fill="#60a363" opacity="0.9">
  <animateMotion begin="-1.4247388242019854s" dur="4.5s" repeatCount="indefinite">
    <mpath xlink:href="#path88"></mpath>
  </animateMotion>
</circle><path id="path89" d="M 939.0100703952172 1404.6054470529114
c 0 29.778896020702085 -7.28632562208668 8.553512686797408 -15.839838308884087 8.553512686797408
S 907.3303937774491 1434.3843430736135 907.3303937774491 1404.6054470529114
s 7.28632562208668 -8.553512686797408 15.839838308884087 -8.553512686797408
S 939.0100703952172 1374.8265510322092 939.0100703952172 1404.6054470529114
z" fill="none" stroke="none"></path>
<circle cx="0" cy="0" r="15.651474929672487" fill="#aca730" opacity="0.9">
  <animateMotion begin="-3.4009065089977986s" dur="4.5s" repeatCount="indefinite">
    <mpath xlink:href="#path89"></mpath>
  </animateMotion>
</circle><path id="path90" d="M 1350.9476618354965 267.69697216443006
c 0 32.489416555265294 -7.949538093309592 9.332066457363435 -17.281604550673027 9.332066457363435
S 1316.3844527341503 300.18638871969534 1316.3844527341503 267.69697216443006
s 7.949538093309592 -9.332066457363435 17.281604550673027 -9.332066457363435
S 1350.9476618354965 235.20755560916479 1350.9476618354965 267.69697216443006
z" fill="none" stroke="none"></path>
<circle cx="0" cy="0" r="18.01567057873138" fill="#60a363" opacity="0.9">
  <animateMotion begin="-3.1914300941573615s" dur="4.5s" repeatCount="indefinite">
    <mpath xlink:href="#path90"></mpath>
  </animateMotion>
</circle><path id="path91" d="M 1583.2181374025922 1875.4178982037151
c 0 19.276747156721328 -4.716650900048835 5.536938013100808 -10.253588913149642 5.536938013100808
S 1562.7109595762931 1894.6946453604364 1562.7109595762931 1875.4178982037151
s 4.716650900048835 -5.536938013100808 10.253588913149642 -5.536938013100808
S 1583.2181374025922 1856.1411510469939 1583.2181374025922 1875.4178982037151
z" fill="none" stroke="none"></path>
<circle cx="0" cy="0" r="21.7712217371149" fill="#e0dcb8" opacity="0.9">
  <animateMotion begin="-4.145795857340182s" dur="4.5s" repeatCount="indefinite">
    <mpath xlink:href="#path91"></mpath>
  </animateMotion>
</circle><path id="path92" d="M 2451.3503295265314 256.0066021930757
c 0 34.67047308063614 -8.48320086015565 9.958540140182722 -18.44174100033837 9.958540140182722
S 2414.4668475258545 290.67707527371186 2414.4668475258545 256.0066021930757
s 8.48320086015565 -9.958540140182722 18.44174100033837 -9.958540140182722
S 2451.3503295265314 221.33612911243955 2451.3503295265314 256.0066021930757
z" fill="none" stroke="none"></path>
<circle cx="0" cy="0" r="15.265363635755417" fill="#9db189" opacity="0.9">
  <animateMotion begin="-0.7767102707371811s" dur="4.5s" repeatCount="indefinite">
    <mpath xlink:href="#path92"></mpath>
  </animateMotion>
</circle><path id="path93" d="M 1586.879721505969 1519.0692287699676
c 0 30.01202330357487 -7.343367404066191 8.620474778686399 -15.96384218275259 8.620474778686399
S 1554.9520371404637 1549.0812520735424 1554.9520371404637 1519.0692287699676
s 7.343367404066191 -8.620474778686399 15.96384218275259 -8.620474778686399
S 1586.879721505969 1489.0572054663928 1586.879721505969 1519.0692287699676
z" fill="none" stroke="none"></path>
<circle cx="0" cy="0" r="21.3543757947939" fill="#aca730" opacity="0.9">
  <animateMotion begin="-3.644443206306553s" dur="4.5s" repeatCount="indefinite">
    <mpath xlink:href="#path93"></mpath>
  </animateMotion>
</circle><path id="path94" d="M 2905.222342362387 1978.1566096608715
c 0 35.0254504837151 -8.570057033249439 10.060501734684124 -18.630558767933564 10.060501734684124
S 2867.96122482652 2013.1820601445866 2867.96122482652 1978.1566096608715
s 8.570057033249439 -10.060501734684124 18.630558767933564 -10.060501734684124
S 2905.222342362387 1943.1311591771564 2905.222342362387 1978.1566096608715
z" fill="none" stroke="none"></path>
<circle cx="0" cy="0" r="18.67267469400378" fill="#607c83" opacity="0.9">
  <animateMotion begin="-1.8789102674572193s" dur="4.5s" repeatCount="indefinite">
    <mpath xlink:href="#path94"></mpath>
  </animateMotion>
</circle><path id="path95" d="M 2184.490163155579 1007.2796487526151
c 0 36.47398793695395 -8.924486410105752 10.476571003167622 -19.401057413273374 10.476571003167622
S 2145.688048329032 1043.753636689569 2145.688048329032 1007.2796487526151
s 8.924486410105752 -10.476571003167622 19.401057413273374 -10.476571003167622
S 2184.490163155579 970.8056608156612 2184.490163155579 1007.2796487526151
z" fill="none" stroke="none"></path>
<circle cx="0" cy="0" r="20.673731919657097" fill="#e0dcb8" opacity="0.9">
  <animateMotion begin="-1.2749496702412229s" dur="4.5s" repeatCount="indefinite">
    <mpath xlink:href="#path95"></mpath>
  </animateMotion>
</circle><path id="path96" d="M 2106.718344022713 1036.5871297544206
c 0 21.560078356640542 -5.275338321305664 6.192788464141433 -11.468126785447097 6.192788464141433
S 2083.782090451819 1058.1472081110612 2083.782090451819 1036.5871297544206
s 5.275338321305664 -6.192788464141433 11.468126785447097 -6.192788464141433
S 2106.718344022713 1015.02705139778 2106.718344022713 1036.5871297544206
z" fill="none" stroke="none"></path>
<circle cx="0" cy="0" r="16.87398941703407" fill="#985d4e" opacity="0.9">
  <animateMotion begin="-0.5968800656688927s" dur="4.5s" repeatCount="indefinite">
    <mpath xlink:href="#path96"></mpath>
  </animateMotion>
</circle><path id="path97" d="M 1000.0391569437563 1090.4330762275338
c 0 24.04538018506498 -5.8834440878350485 6.9066517552846225 -12.790095843119671 6.9066517552846225
S 974.4589652575171 1114.4784564125987 974.4589652575171 1090.4330762275338
s 5.8834440878350485 -6.9066517552846225 12.790095843119671 -6.9066517552846225
S 1000.0391569437563 1066.3876960424689 1000.0391569437563 1090.4330762275338
z" fill="none" stroke="none"></path>
<circle cx="0" cy="0" r="14.833590459610996" fill="#aca730" opacity="0.9">
  <animateMotion begin="-0.15702499952541116s" dur="4.5s" repeatCount="indefinite">
    <mpath xlink:href="#path97"></mpath>
  </animateMotion>
</circle><path id="path98" d="M 2021.6743736953051 563.6448087781426
c 0 23.59243433636943 -5.772616912090392 6.7765502881061135 -12.549167200196505 6.7765502881061135
S 1996.576039294912 587.2372431145121 1996.576039294912 563.6448087781426
s 5.772616912090392 -6.7765502881061135 12.549167200196505 -6.7765502881061135
S 2021.6743736953051 540.0523744417732 2021.6743736953051 563.6448087781426
z" fill="none" stroke="none"></path>
<circle cx="0" cy="0" r="15.24945380697357" fill="#60a363" opacity="0.9">
  <animateMotion begin="-2.8126895246419594s" dur="4.5s" repeatCount="indefinite">
    <mpath xlink:href="#path98"></mpath>
  </animateMotion>
</circle><path id="path99" d="M 1550.653542684491 1709.8522052992175
c 0 26.896212159514068 -6.580988081583228 7.72550774794553 -14.306495829528759 7.72550774794553
S 1522.0405510254334 1736.7484174587316 1522.0405510254334 1709.8522052992175
s 6.580988081583228 -7.72550774794553 14.306495829528759 -7.72550774794553
S 1550.653542684491 1682.9559931397034 1550.653542684491 1709.8522052992175
z" fill="none" stroke="none"></path>
<circle cx="0" cy="0" r="16.56428368819867" fill="#aca730" opacity="0.9">
  <animateMotion begin="-3.049975248265552s" dur="4.5s" repeatCount="indefinite">
    <mpath xlink:href="#path99"></mpath>
  </animateMotion>
</circle></g>
</svg>